HIERARCHY
ROOT Hips
{
	OFFSET 0.000000 0.000000 0.000000 
	CHANNELS 6 Xposition Yposition Zposition Yrotation Zrotation Xrotation 
	JOINT Lumbar
	{
		OFFSET 0.000000 0.000000 0.000000 
		CHANNELS 3 Zrotation Xrotation Yrotation
		JOINT Neck
		{
			OFFSET 0.000000 0.445665 0.000000 
			CHANNELS 3 Zrotation Xrotation Yrotation
			End Site
			{
				OFFSET 0.000000 0.227535 0.000000 
			}
		}
		JOINT RightShoulder
		{
			OFFSET 0.019635 0.377685 0.194865 
			CHANNELS 3 Zrotation Xrotation Yrotation
			JOINT RightElbow
			{
				OFFSET 0.000000 -0.243375 0.000000 
				CHANNELS 2 Zrotation Yrotation
				JOINT RightWrist
				{
					OFFSET 0.000000 -0.264825 0.000000 
					CHANNELS 2 Zrotation Xrotation
					End Site
					{
						OFFSET 0.006600 -0.176220 0.000990 
					}
				}
			}
		}
		JOINT LeftShoulder
		{
			OFFSET 0.019635 0.377685 -0.194865 
			CHANNELS 3 Zrotation Xrotation Yrotation
			JOINT LeftElbow
			{
				OFFSET 0.000000 -0.243375 0.000000 
				CHANNELS 2 Zrotation Yrotation
				JOINT LeftWrist
				{
					OFFSET 0.000000 -0.264825 0.000000 
					CHANNELS 2 Zrotation Xrotation
					End Site
					{
						OFFSET 0.006600 -0.176220 -0.000990 
					}
				}
			}
		}
	}
	JOINT RightHip
	{
		OFFSET 0.052140 -0.069960 0.075570 
		CHANNELS 3 Zrotation Xrotation Yrotation
		JOINT RightKnee
		{
			OFFSET 0.000000 -0.402270 0.000000 
			CHANNELS 1 Zrotation
			JOINT RightAnkle
			{
				OFFSET 0.000000 -0.404085 0.000000 
				CHANNELS 3 Zrotation Xrotation Yrotation
				End Site
				{
					OFFSET 0.204105 -0.089430 0.008415 
				}
			}
		}
	}
	JOINT LeftHip
	{
		OFFSET 0.052140 -0.069960 -0.075570 
		CHANNELS 3 Zrotation Xrotation Yrotation
		JOINT LeftKnee
		{
			OFFSET 0.000000 -0.402270 0.000000 
			CHANNELS 1 Zrotation
			JOINT LeftAnkle
			{
				OFFSET 0.000000 -0.404085 0.000000 
				CHANNELS 3 Zrotation Xrotation Yrotation
				End Site
				{
					OFFSET 0.204105 -0.089430 -0.008415 
				}
			}
		}
	}
}
MOTION
Frames: 19
Frame Time: 0.02
-0.00041 -3e-05 0.00012 26.05516 -30.079 -5.2952 50.19702 1.56788 -5.52674 0.6913 -0.67027 -0.43683 -19.43781 -10.54797 7.94714 35.15399 96.63826 9.15449 0.90529 -22.51763 19.51261 -28.36302 48.33848 -73.76451 4.66115 3.58942 42.00171 0.21758 -2.53409 -18.95861 -6.06313 -3.38319 -2.39872 46.06996 3.06851 5.1529 -24.60692 -6.38617 2.19745 1.73198
-0.00068 -5e-05 0.0001 26.05113 -30.07541 -5.30447 50.17519 1.57028 -5.49356 0.68499 -0.65745 -0.43692 -19.47817 -10.52429 7.95819 35.13518 96.69803 9.18479 0.90037 -22.75274 18.39686 -26.00997 48.35651 -80.11519 6.80267 2.62687 42.01176 0.17351 -2.78951 -18.96045 -6.0617 -3.36444 -2.38231 46.08494 3.04468 5.04321 -24.60951 -6.38654 2.20482 1.73829
-0.00095 -8e-05 9e-05 26.04711 -30.07183 -5.31372 50.15339 1.57267 -5.46046 0.67872 -0.64466 -0.43701 -19.51842 -10.50069 7.96921 35.11645 96.75736 9.21493 0.89548 -22.98688 17.28586 -23.66703 48.37452 -86.43831 8.93489 1.66849 42.0218 0.12964 -3.04386 -18.96229 -6.06028 -3.34576 -2.36598 46.09989 3.02092 4.93378 -24.6121 -6.38692 2.21217 1.74458
-0.00123 -0.0001 8e-05 26.04309 -30.06824 -5.32296 50.13162 1.57507 -5.42739 0.67242 -0.63188 -0.4371 -19.55866 -10.47709 7.98022 35.0977 96.81686 9.24511 0.89057 -23.22122 16.1738 -21.32179 48.3925 -92.76787 11.06929 0.70913 42.03181 0.08572 -3.29843 -18.96412 -6.05886 -3.32707 -2.34963 46.11482 2.99716 4.82442 -24.61468 -6.38729 2.21952 1.75087
-0.0015 -0.00012 6e-05 26.03905 -30.06466 -5.33221 50.10982 1.57746 -5.39424 0.6661 -0.61908 -0.43718 -19.59902 -10.45341 7.99126 35.07886 96.87702 9.27552 0.88564 -23.45665 15.05638 -18.96507 48.41052 -99.12873 13.21426 -0.25496 42.04183 0.04159 -3.55423 -18.96595 -6.05743 -3.3083 -2.3332 46.12976 2.97334 4.71482 -24.61725 -6.38766 2.22689 1.75717
-0.00177 -0.00015 5e-05 26.03506 -30.06108 -5.34147 50.08803 1.57987 -5.36126 0.65996 -0.60632 -0.43727 -19.63904 -10.42998 8.00223 35.06038 96.93464 9.3051 0.88084 -23.68808 13.95889 -16.65107 48.42852 -105.37265 15.31972 -1.20135 42.05192 -0.00176 -3.80554 -18.96779 -6.05604 -3.28981 -2.31706 46.14474 2.94973 4.60576 -24.6199 -6.38805 2.23419 1.76342
-0.00204 -0.00017 3e-05 26.031 -30.05748 -5.35069 50.06627 1.58223 -5.32798 0.65339 -0.59349 -0.43736 -19.67968 -10.40606 8.01333 35.04117 96.99702 9.33621 0.87575 -23.92723 12.82288 -14.25457 48.44649 -111.8425 17.50152 -2.18195 42.06184 -0.04661 -4.06545 -18.96962 -6.05456 -3.2708 -2.30037 46.1596 2.9257 4.49575 -24.62237 -6.3884 2.24162 1.76978
-0.00232 -0.0002 2e-05 26.02698 -30.05393 -5.35995 50.04444 1.58465 -5.29494 0.64733 -0.58071 -0.43745 -19.71979 -10.38262 8.02432 35.0227 97.05554 9.36608 0.87096 -24.15941 11.72169 -11.93251 48.46456 -118.10857 19.61447 -3.13169 42.07195 -0.09012 -4.31774 -18.97146 -6.05316 -3.25224 -2.28416 46.17462 2.90208 4.3866 -24.62502 -6.38878 2.24894 1.77604
-0.00259 -0.00022 0 26.02308 -30.05033 -5.36928 50.02265 1.58713 -5.26233 0.64142 -0.56806 -0.43754 -19.75909 -10.35965 8.03514 35.00485 97.10722 9.39378 0.86643 -24.38253 10.66563 -9.70748 48.48249 -124.10864 21.6375 -4.04113 42.08214 -0.13184 -4.55954 -18.97329 -6.05188 -3.23433 -2.26865 46.18967 2.87886 4.27847 -24.62784 -6.3892 2.25612 1.78218
-0.00286 -0.00025 -1e-05 26.01871 -30.04668 -5.37826 50.001 1.58921 -5.22767 0.63324 -0.55488 -0.43762 -19.80258 -10.33361 8.04684 34.98259 97.19185 9.432 0.86009 -24.65614 9.35761 -6.9423 48.50042 -131.58835 24.16059 -5.17471 42.09143 -0.18337 -4.85815 -18.97512 -6.04999 -3.21295 -2.24943 46.20404 2.85306 4.16438 -24.62956 -6.38942 2.26407 1.78902
-0.00313 -0.00027 -2e-05 26.0152 -30.04336 -5.38794 49.97884 1.59214 -5.19709 0.63077 -0.54265 -0.43772 -19.8375 -10.3143 8.05672 34.97016 97.21111 9.4493 0.85775 -24.82431 8.57622 -5.305 48.51886 -135.97919 25.63983 -5.84039 42.10289 -0.21454 -5.03917 -18.97699 -6.04935 -3.19872 -2.23785 46.22016 2.83285 4.06297 -24.63368 -6.39006 2.27039 1.79437
-0.00341 -0.00029 -2e-05 26.015 -30.039 -5.39981 49.9569 1.59734 -5.17985 0.63664 -0.53428 -0.43788 -19.8468 -10.31089 8.05957 34.98075 97.02283 9.40012 0.86623 -24.69162 9.29445 -6.88827 48.53469 -131.54408 24.13574 -5.16881 42.11817 -0.18642 -4.87546 -18.97868 -6.05235 -3.20577 -2.24888 46.23862 2.82684 3.99572 -24.64361 -6.39176 2.27227 1.79569
-0.00369 -0.00031 -1e-05 26.01552 -30.03535 -5.41235 49.93412 1.6034 -5.16638 0.64965 -0.52655 -0.43807 -19.84798 -10.31433 8.05969 35.00193 96.77943 9.33298 0.87963 -24.45549 10.53089 -9.57956 48.55185 -124.07591 21.60663 -4.03776 42.13606 -0.13845 -4.59761 -18.98046 -6.05658 -3.21968 -2.26729 46.25931 2.82663 3.94121 -24.65607 -6.39389 2.27249 1.79552
-0.00396 -0.00033 1e-05 26.01503 -30.03259 -5.42439 49.91067 1.60909 -5.14972 0.66415 -0.51775 -0.43824 -19.85416 -10.31675 8.06407 35.0209 96.57293 9.27829 0.88974 -24.27385 11.49526 -11.68341 48.57092 -118.21928 19.62282 -3.15111 42.15411 -0.10188 -4.38658 -18.98237 -6.06012 -3.22936 -2.28123 46.28054 2.82455 3.88147 -24.66794 -6.39587 2.27343 1.796
-0.00425 -0.00035 -1e-05 26.01724 -30.0246 -5.4372 49.89172 1.61464 -5.13906 0.65854 -0.51247 -0.4384 -19.85444 -10.31187 8.06105 35.02903 96.2946 9.19992 0.90067 -24.05917 12.61716 -14.14884 48.57908 -111.35662 17.29687 -2.11119 42.16634 -0.05544 -4.11279 -18.98355 -6.06416 -3.24373 -2.29983 46.2951 2.81935 3.81994 -24.6776 -6.39766 2.27451 1.79659
-0.00451 -0.00036 4e-05 26.01424 -30.02783 -5.44862 49.86309 1.62074 -5.11709 0.69667 -0.49975 -0.43861 -19.86554 -10.32194 8.06608 35.06208 96.18003 9.17353 0.9156 -23.89035 13.53114 -16.11732 48.61066 -105.89003 15.44632 -1.2842 42.1915 -0.02459 -3.94192 -18.98628 -6.0675 -3.24996 -2.31054 46.32424 2.82188 3.76447 -24.69228 -6.39996 2.27494 1.79662
-0.00468 -0.00034 0.00025 25.99454 -30.0605 -5.45544 49.80878 1.62791 -5.06027 0.85235 -0.46842 -0.43895 -19.905 -10.38901 8.15546 35.16281 96.27974 9.23128 0.89859 -23.86061 13.7671 -16.49792 48.70292 -104.84729 15.10834 -1.13471 42.25029 -0.04397 -4.09039 -18.99328 -6.06838 -3.23194 -2.29703 46.39176 2.84544 3.72849 -24.72166 -6.40351 2.27367 1.79513
-0.00481 -0.0003 0.00053 25.96993 -30.10472 -5.46089 49.74457 1.63571 -4.99232 1.05199 -0.42921 -0.43934 -19.95646 -10.46868 8.2443 35.28794 96.58004 9.35046 0.89118 -23.88309 13.77314 -16.3327 48.8192 -105.33478 15.28975 -1.21807 42.32232 -0.07935 -4.3452 -19.00183 -6.06856 -3.20548 -2.27542 46.47414 2.87635 3.69712 -24.75571 -6.40759 2.27188 1.79319
-0.00496 -0.00027 0.00078 25.949 -30.14452 -5.46742 49.68434 1.64335 -4.93135 1.2326 -0.39215 -0.43971 -20.00452 -10.52983 8.28965 35.40099 96.97 9.4877 0.90935 -23.89001 13.86716 -16.37649 48.92709 -105.25263 15.27262 -1.2122 42.38919 -0.10585 -4.54647 -19.00968 -6.06918 -3.18294 -2.25795 46.55052 2.90318 3.65969 -24.78667 -6.41148 2.27052 1.79167
